HIERARCHY
ROOT Hips
{
	OFFSET 0.000000 0.000000 0.000000
	CHANNELS 6 Xposition Yposition Zposition Zrotation Xrotation Yrotation
	JOINT Spine
	{
		OFFSET 0.000000 0.059888 0.006666
		CHANNELS 6 Xposition Yposition Zposition Zrotation Xrotation Yrotation
		JOINT Chest
		{
			OFFSET 0.000000 0.125681 -0.015911
			CHANNELS 6 Xposition Yposition Zposition Zrotation Xrotation Yrotation
			JOINT UpperChest
			{
				OFFSET 0.000000 0.122768 -0.001652
				CHANNELS 6 Xposition Yposition Zposition Zrotation Xrotation Yrotation
				JOINT Neck
				{
					OFFSET 0.000000 0.155865 0.008735
					CHANNELS 6 Xposition Yposition Zposition Zrotation Xrotation Yrotation
					JOINT Head
					{
						OFFSET 0.000000 0.095969 -0.000410
						CHANNELS 6 Xposition Yposition Zposition Zrotation Xrotation Yrotation
						JOINT LeftEye
						{
							OFFSET 0.015267 0.059218 0.021494
							CHANNELS 6 Xposition Yposition Zposition Zrotation Xrotation Yrotation
							End Site
							{
								OFFSET 0.015267 0.059218 0.021494
							}
						}
						JOINT RightEye
						{
							OFFSET -0.015267 0.059218 0.021494
							CHANNELS 6 Xposition Yposition Zposition Zrotation Xrotation Yrotation
							End Site
							{
								OFFSET -0.015267 0.059218 0.021494
							}
						}
					}
				}
				JOINT LeftShoulder
				{
					OFFSET 0.025383 0.124268 0.007699
					CHANNELS 6 Xposition Yposition Zposition Zrotation Xrotation Yrotation
					JOINT LeftUpperArm
					{
						OFFSET 0.136062 0.000000 0.000000
						CHANNELS 6 Xposition Yposition Zposition Zrotation Xrotation Yrotation
						JOINT LeftLowerArm
						{
							OFFSET 0.225446 0.000000 0.000000
							CHANNELS 6 Xposition Yposition Zposition Zrotation Xrotation Yrotation
							JOINT LeftHand
							{
								OFFSET 0.256325 0.000003 0.000015
								CHANNELS 6 Xposition Yposition Zposition Zrotation Xrotation Yrotation
								JOINT LeftIndexProximal
								{
									OFFSET 0.074229 0.008101 0.022282
									CHANNELS 6 Xposition Yposition Zposition Zrotation Xrotation Yrotation
									JOINT LeftIndexIntermediate
									{
										OFFSET 0.037712 0.000000 -0.000001
										CHANNELS 6 Xposition Yposition Zposition Zrotation Xrotation Yrotation
										JOINT LeftIndexDistal
										{
											OFFSET 0.023218 0.000022 0.000021
											CHANNELS 6 Xposition Yposition Zposition Zrotation Xrotation Yrotation
											End Site
											{
												OFFSET 0.023218 0.000022 0.000021
											}
										}
									}
								}
								JOINT LeftLittleProximal
								{
									OFFSET 0.069261 0.008101 -0.033073
									CHANNELS 6 Xposition Yposition Zposition Zrotation Xrotation Yrotation
									JOINT LeftLittleIntermediate
									{
										OFFSET 0.035643 0.000000 0.000000
										CHANNELS 6 Xposition Yposition Zposition Zrotation Xrotation Yrotation
										JOINT LeftLittleDistal
										{
											OFFSET 0.020542 0.000000 0.000000
											CHANNELS 6 Xposition Yposition Zposition Zrotation Xrotation Yrotation
											End Site
											{
												OFFSET 0.020542 0.000000 0.000000
											}
										}
									}
								}
								JOINT LeftMiddleProximal
								{
									OFFSET 0.075240 0.008101 0.002320
									CHANNELS 6 Xposition Yposition Zposition Zrotation Xrotation Yrotation
									JOINT LeftMiddleIntermediate
									{
										OFFSET 0.042007 0.000000 0.000000
										CHANNELS 6 Xposition Yposition Zposition Zrotation Xrotation Yrotation
										JOINT LeftMiddleDistal
										{
											OFFSET 0.025915 0.000000 0.000000
											CHANNELS 6 Xposition Yposition Zposition Zrotation Xrotation Yrotation
											End Site
											{
												OFFSET 0.025915 0.000000 0.000000
											}
										}
									}
								}
								JOINT LeftRingProximal
								{
									OFFSET 0.074383 0.008101 -0.015403
									CHANNELS 6 Xposition Yposition Zposition Zrotation Xrotation Yrotation
									JOINT LeftRingIntermediate
									{
										OFFSET 0.038967 0.000000 0.000000
										CHANNELS 6 Xposition Yposition Zposition Zrotation Xrotation Yrotation
										JOINT LeftRingDistal
										{
											OFFSET 0.022488 0.000000 0.000000
											CHANNELS 6 Xposition Yposition Zposition Zrotation Xrotation Yrotation
											End Site
											{
												OFFSET 0.022488 0.000000 0.000000
											}
										}
									}
								}
								JOINT LeftThumbProximal
								{
									OFFSET 0.003995 -0.010985 0.018096
									CHANNELS 6 Xposition Yposition Zposition Zrotation Xrotation Yrotation
									JOINT LeftThumbIntermediate
									{
										OFFSET 0.052819 -0.000008 -0.000074
										CHANNELS 6 Xposition Yposition Zposition Zrotation Xrotation Yrotation
										JOINT LeftThumbDistal
										{
											OFFSET 0.032489 0.000042 -0.000035
											CHANNELS 6 Xposition Yposition Zposition Zrotation Xrotation Yrotation
											End Site
											{
												OFFSET 0.032489 0.000042 -0.000035
											}
										}
									}
								}
							}
						}
					}
				}
				JOINT RightShoulder
				{
					OFFSET -0.025383 0.124268 0.007699
					CHANNELS 6 Xposition Yposition Zposition Zrotation Xrotation Yrotation
					JOINT RightUpperArm
					{
						OFFSET -0.136062 0.000000 0.000000
						CHANNELS 6 Xposition Yposition Zposition Zrotation Xrotation Yrotation
						JOINT RightLowerArm
						{
							OFFSET -0.225446 0.000000 0.000000
							CHANNELS 6 Xposition Yposition Zposition Zrotation Xrotation Yrotation
							JOINT RightHand
							{
								OFFSET -0.256325 0.000003 0.000015
								CHANNELS 6 Xposition Yposition Zposition Zrotation Xrotation Yrotation
								JOINT RightIndexProximal
								{
									OFFSET -0.074229 0.008101 0.022282
									CHANNELS 6 Xposition Yposition Zposition Zrotation Xrotation Yrotation
									JOINT RightIndexIntermediate
									{
										OFFSET -0.037712 0.000000 -0.000001
										CHANNELS 6 Xposition Yposition Zposition Zrotation Xrotation Yrotation
										JOINT RightIndexDistal
										{
											OFFSET -0.023218 0.000022 0.000021
											CHANNELS 6 Xposition Yposition Zposition Zrotation Xrotation Yrotation
											End Site
											{
												OFFSET -0.023218 0.000022 0.000021
											}
										}
									}
								}
								JOINT RightLittleProximal
								{
									OFFSET -0.069261 0.008101 -0.033073
									CHANNELS 6 Xposition Yposition Zposition Zrotation Xrotation Yrotation
									JOINT RightLittleIntermediate
									{
										OFFSET -0.035643 0.000000 0.000000
										CHANNELS 6 Xposition Yposition Zposition Zrotation Xrotation Yrotation
										JOINT RightLittleDistal
										{
											OFFSET -0.020542 0.000000 0.000000
											CHANNELS 6 Xposition Yposition Zposition Zrotation Xrotation Yrotation
											End Site
											{
												OFFSET -0.020542 0.000000 0.000000
											}
										}
									}
								}
								JOINT RightMiddleProximal
								{
									OFFSET -0.075240 0.008101 0.002320
									CHANNELS 6 Xposition Yposition Zposition Zrotation Xrotation Yrotation
									JOINT RightMiddleIntermediate
									{
										OFFSET -0.042007 0.000000 0.000000
										CHANNELS 6 Xposition Yposition Zposition Zrotation Xrotation Yrotation
										JOINT RightMiddleDistal
										{
											OFFSET -0.025915 0.000000 0.000000
											CHANNELS 6 Xposition Yposition Zposition Zrotation Xrotation Yrotation
											End Site
											{
												OFFSET -0.025915 0.000000 0.000000
											}
										}
									}
								}
								JOINT RightRingProximal
								{
									OFFSET -0.074383 0.008101 -0.015403
									CHANNELS 6 Xposition Yposition Zposition Zrotation Xrotation Yrotation
									JOINT RightRingIntermediate
									{
										OFFSET -0.038967 0.000000 0.000000
										CHANNELS 6 Xposition Yposition Zposition Zrotation Xrotation Yrotation
										JOINT RightRingDistal
										{
											OFFSET -0.022488 0.000000 0.000000
											CHANNELS 6 Xposition Yposition Zposition Zrotation Xrotation Yrotation
											End Site
											{
												OFFSET -0.022488 0.000000 0.000000
											}
										}
									}
								}
								JOINT RightThumbProximal
								{
									OFFSET -0.003995 -0.010985 0.018096
									CHANNELS 6 Xposition Yposition Zposition Zrotation Xrotation Yrotation
									JOINT RightThumbIntermediate
									{
										OFFSET -0.052819 -0.000008 -0.000074
										CHANNELS 6 Xposition Yposition Zposition Zrotation Xrotation Yrotation
										JOINT RightThumbDistal
										{
											OFFSET -0.032489 0.000042 -0.000035
											CHANNELS 6 Xposition Yposition Zposition Zrotation Xrotation Yrotation
											End Site
											{
												OFFSET -0.032489 0.000042 -0.000035
											}
										}
									}
								}
							}
						}
					}
				}
			}
		}
	}
	JOINT LeftUpperLeg
	{
		OFFSET 0.087143 -0.045243 0.001548
		CHANNELS 6 Xposition Yposition Zposition Zrotation Xrotation Yrotation
		JOINT LeftLowerLeg
		{
			OFFSET 0.000000 -0.394432 -0.000001
			CHANNELS 6 Xposition Yposition Zposition Zrotation Xrotation Yrotation
			JOINT LeftFoot
			{
				OFFSET 0.000000 -0.466446 0.003058
				CHANNELS 6 Xposition Yposition Zposition Zrotation Xrotation Yrotation
				JOINT LeftToes
				{
					OFFSET 0.000000 -0.079218 0.140851
					CHANNELS 6 Xposition Yposition Zposition Zrotation Xrotation Yrotation
					End Site
					{
						OFFSET 0.000000 -0.079218 0.140851
					}
				}
			}
		}
	}
	JOINT RightUpperLeg
	{
		OFFSET -0.087143 -0.045243 0.001548
		CHANNELS 6 Xposition Yposition Zposition Zrotation Xrotation Yrotation
		JOINT RightLowerLeg
		{
			OFFSET 0.000000 -0.394432 -0.000001
			CHANNELS 6 Xposition Yposition Zposition Zrotation Xrotation Yrotation
			JOINT RightFoot
			{
				OFFSET 0.000000 -0.466446 0.003058
				CHANNELS 6 Xposition Yposition Zposition Zrotation Xrotation Yrotation
				JOINT RightToes
				{
					OFFSET 0.000000 -0.079218 0.140851
					CHANNELS 6 Xposition Yposition Zposition Zrotation Xrotation Yrotation
					End Site
					{
						OFFSET 0.000000 -0.079218 0.140851
					}
				}
			}
		}
	}
}
MOTION
Frames: 4
Frame Time: 0.041667
-0.092763 1.004408 -0.388919 -0.682455 14.476209 17.934501 -0.000000 0.059888 0.006666 -1.264903 4.845403 1.063269 -0.000000 0.125681 -0.015911 -1.118985 -2.143467 -0.615371 -0.000000 0.122768 -0.001652 -0.000003 -12.396962 0.000014 -0.000000 0.155865 0.008735 0.453309 18.178813 0.375262 0.000000 0.095969 -0.000410 2.812566 6.268018 1.721620 0.015267 0.059218 0.021494 -1.701528 3.586934 21.747778 -0.015267 0.059218 0.021494 1.701523 3.586946 -21.747771 0.025383 0.124268 0.007699 14.670705 -1.728825 17.032602 0.136062 -0.000000 -0.000000 -87.674460 20.392331 8.278822 0.225446 0.000000 0.000000 -7.597592 -17.512390 -25.645456 0.256325 0.000003 0.000015 3.073557 41.678528 -5.777065 0.074229 0.008101 0.022282 -0.012963 0.667615 1.112092 0.037712 0.000000 -0.000001 -1.679193 1.282853 0.674500 0.023218 0.000022 0.000021 -0.334987 1.286444 -0.710993 0.069261 0.008101 -0.033073 0.000006 -0.000042 -0.000000 0.035643 -0.000000 -0.000000 0.000003 -0.000000 0.000000 0.020542 -0.000000 -0.000000 0.890201 -0.008561 -1.101152 0.075240 0.008101 0.002320 -0.000001 -0.000009 -0.000007 0.042007 -0.000000 0.000000 0.000004 0.000038 -0.000013 0.025915 0.000000 -0.000000 0.000005 0.000039 -0.000013 0.074383 0.008101 -0.015403 0.000002 0.000014 0.000004 0.038967 -0.000000 -0.000000 0.000004 -0.000002 -0.000000 0.022488 0.000000 0.000000 -0.712571 -0.008158 1.310707 0.003995 -0.010985 0.018096 86.199767 49.487770 -89.646854 0.052819 -0.000008 -0.000074 -2.573032 -0.739909 0.462998 0.032489 0.000042 -0.000035 4.590286 -0.705058 -0.717064 -0.025383 0.124268 0.007699 6.289449 -1.698415 -17.449357 -0.136062 -0.000000 -0.000000 63.617857 24.843240 2.488282 -0.225446 -0.000000 0.000000 5.482434 -11.046495 16.958205 -0.256325 0.000003 0.000015 9.454317 45.370618 -3.028448 -0.074229 0.008101 0.022282 0.012969 0.667616 -1.112092 -0.037712 0.000000 -0.000001 1.679193 1.282853 -0.674502 -0.023218 0.000022 0.000021 0.334982 1.286448 0.710993 -0.069261 0.008101 -0.033073 -0.000004 -0.000041 -0.000000 -0.035643 0.000000 -0.000000 -0.000003 -0.000000 -0.000000 -0.020542 -0.000000 -0.000000 -0.890204 -0.008562 1.101152 -0.075240 0.008101 0.002320 0.000001 -0.000006 0.000006 -0.042007 -0.000000 -0.000000 -0.000002 0.000036 0.000012 -0.025915 -0.000000 -0.000000 -0.000003 0.000037 0.000012 -0.074383 0.008101 -0.015403 0.000002 0.000014 -0.000003 -0.038967 0.000000 0.000000 -0.000002 -0.000002 -0.000000 -0.022488 0.000000 -0.000000 0.712571 -0.008160 -1.310708 -0.003995 -0.010985 0.018096 -86.199774 49.487763 89.646875 -0.052819 -0.000008 -0.000074 2.573041 -0.739904 -0.462996 -0.032489 0.000042 -0.000035 -4.590271 -0.705061 0.717067 0.087143 -0.045243 0.001548 -2.321113 -5.569677 -0.225417 -0.000000 -0.394432 -0.000001 0.489107 21.870694 -0.759987 -0.000000 -0.466446 0.003058 0.340748 -2.301219 10.036415 0.000000 -0.079218 0.140851 -0.000001 0.248287 -0.000002 -0.087143 -0.045243 0.001548 -12.275058 -9.907341 -2.143872 -0.000000 -0.394432 -0.000001 12.617595 27.464208 -24.937439 0.000000 -0.466446 0.003058 4.315511 -7.103815 32.789098 -0.000000 -0.079218 0.140851 -0.000003 0.248287 -0.000000 
-0.106096 1.005237 -0.322384 -0.264578 13.326262 15.935243 0.000000 0.059888 0.006666 -1.501405 5.878490 3.282552 -0.000000 0.125681 -0.015911 -1.004286 -1.035052 -0.533958 -0.000000 0.122768 -0.001652 -0.000004 -12.396968 0.000016 -0.000000 0.155865 0.008735 0.404388 17.311278 0.331958 0.000000 0.095969 -0.000410 2.921826 6.739730 0.104254 0.015267 0.059218 0.021494 -1.701527 3.586934 21.747777 -0.015267 0.059218 0.021494 1.701525 3.586952 -21.747771 0.025383 0.124268 0.007699 15.245640 -2.181224 16.700267 0.136062 -0.000000 -0.000000 -83.124577 23.301370 4.834150 0.225446 0.000000 -0.000000 -8.389551 -24.928061 -28.516538 0.256325 0.000003 0.000015 2.983452 40.969787 -7.051576 0.074229 0.008101 0.022282 -0.012972 0.667614 1.112094 0.037712 -0.000000 -0.000001 -1.679194 1.282853 0.674500 0.023218 0.000022 0.000021 -0.334980 1.286446 -0.710994 0.069261 0.008101 -0.033073 0.000005 -0.000042 0.000001 0.035643 0.000000 0.000000 0.000001 0.000000 0.000001 0.020542 0.000000 0.000000 0.890205 -0.008560 -1.101154 0.075240 0.008101 0.002320 0.000000 -0.000008 -0.000006 0.042007 0.000000 -0.000000 0.000002 0.000039 -0.000013 0.025915 0.000000 0.000000 0.000004 0.000039 -0.000014 0.074383 0.008101 -0.015403 -0.000000 0.000014 0.000004 0.038967 0.000000 -0.000000 0.000003 -0.000001 -0.000001 0.022488 0.000000 0.000000 -0.712573 -0.008158 1.310707 0.003995 -0.010985 0.018096 86.199760 49.487774 -89.646854 0.052819 -0.000008 -0.000074 -2.573031 -0.739908 0.462997 0.032489 0.000042 -0.000035 4.590283 -0.705060 -0.717065 -0.025383 0.124268 0.007699 6.926231 -2.154759 -16.990411 -0.136062 0.000000 0.000000 56.365600 24.970224 5.467201 -0.225446 0.000000 -0.000000 4.773749 -15.090041 15.236591 -0.256325 0.000003 0.000015 13.540462 43.988112 -4.789442 -0.074229 0.008101 0.022282 0.012970 0.667617 -1.112092 -0.037712 -0.000000 -0.000001 1.679191 1.282848 -0.674503 -0.023218 0.000022 0.000021 0.334983 1.286447 0.710994 -0.069261 0.008101 -0.033073 -0.000004 -0.000041 -0.000000 -0.035643 0.000000 -0.000000 -0.000004 0.000003 0.000001 -0.020542 -0.000000 -0.000000 -0.890204 -0.008562 1.101152 -0.075240 0.008101 0.002320 0.000002 -0.000004 0.000007 -0.042007 0.000000 0.000000 -0.000003 0.000038 0.000013 -0.025915 -0.000000 0.000000 -0.000003 0.000039 0.000013 -0.074383 0.008101 -0.015403 0.000001 0.000018 -0.000003 -0.038967 0.000000 0.000000 -0.000002 -0.000002 0.000000 -0.022488 0.000000 0.000000 0.712571 -0.008156 -1.310707 -0.003995 -0.010985 0.018096 -86.199767 49.487767 89.646882 -0.052819 -0.000008 -0.000074 2.573040 -0.739907 -0.462995 -0.032489 0.000042 -0.000035 -4.590277 -0.705057 0.717065 0.087143 -0.045243 0.001548 -3.758527 -7.579417 -0.496473 0.000000 -0.394432 -0.000001 0.992008 22.078276 -1.698861 -0.000000 -0.466446 0.003058 0.951569 -4.715767 12.378628 -0.000000 -0.079218 0.140851 -0.000000 0.248287 -0.000001 -0.087143 -0.045243 0.001548 -12.571505 -11.683316 -2.585616 -0.000000 -0.394432 -0.000001 11.699228 26.355349 -23.883148 0.000000 -0.466446 0.003058 4.783877 -8.167966 31.688594 -0.000000 -0.079218 0.140851 -0.000001 0.248290 0.000002 
-0.115089 1.008530 -0.271447 -0.245336 12.460072 13.951947 -0.000000 0.059888 0.006666 -1.461693 6.503302 4.178892 -0.000000 0.125681 -0.015911 -0.770678 -0.355587 -0.460520 -0.000000 0.122768 -0.001652 -0.000002 -12.396966 0.000017 -0.000000 0.155865 0.008735 0.087501 17.080621 0.322960 -0.000000 0.095969 -0.000410 2.485427 6.165741 0.844564 0.015267 0.059218 0.021494 -1.701526 3.586933 21.747783 -0.015267 0.059218 0.021494 1.701524 3.586947 -21.747773 0.025383 0.124268 0.007699 15.793755 -2.485836 16.766806 0.136062 -0.000000 0.000000 -74.952959 24.815337 1.348705 0.225446 -0.000000 -0.000000 -10.773406 -30.563010 -32.480514 0.256325 0.000003 0.000015 1.220961 43.558001 -4.439715 0.074229 0.008101 0.022282 -0.012972 0.667613 1.112092 0.037712 0.000000 -0.000001 -1.679196 1.282851 0.674501 0.023218 0.000022 0.000021 -0.334988 1.286445 -0.710994 0.069261 0.008101 -0.033073 0.000004 -0.000044 -0.000000 0.035643 -0.000000 0.000000 0.000004 0.000000 0.000000 0.020542 0.000000 0.000000 0.890202 -0.008561 -1.101152 0.075240 0.008101 0.002320 -0.000003 -0.000010 -0.000005 0.042007 0.000000 0.000000 0.000005 0.000040 -0.000013 0.025915 0.000000 -0.000000 0.000005 0.000039 -0.000013 0.074383 0.008101 -0.015403 -0.000001 0.000013 0.000003 0.038967 -0.000000 -0.000000 0.000010 -0.000001 0.000002 0.022488 0.000000 0.000000 -0.712574 -0.008158 1.310708 0.003995 -0.010985 0.018096 86.199760 49.487763 -89.646854 0.052819 -0.000008 -0.000074 -2.573034 -0.739908 0.462996 0.032489 0.000042 -0.000035 4.590282 -0.705063 -0.717065 -0.025383 0.124268 0.007699 7.447097 -2.465850 -16.847112 -0.136062 0.000000 0.000000 48.942803 24.184107 7.686043 -0.225446 -0.000000 0.000000 4.373374 -17.849128 14.797193 -0.256325 0.000003 0.000015 14.092303 42.142431 -5.204365 -0.074229 0.008101 0.022282 0.012967 0.667616 -1.112092 -0.037712 0.000000 -0.000001 1.679194 1.282848 -0.674503 -0.023218 0.000022 0.000021 0.334982 1.286453 0.710994 -0.069261 0.008101 -0.033073 -0.000006 -0.000044 -0.000001 -0.035643 -0.000000 0.000000 -0.000004 -0.000000 -0.000001 -0.020542 -0.000000 -0.000000 -0.890206 -0.008562 1.101151 -0.075240 0.008101 0.002320 0.000000 -0.000009 0.000005 -0.042007 0.000000 0.000000 -0.000004 0.000038 0.000013 -0.025915 -0.000000 0.000000 -0.000005 0.000039 0.000013 -0.074383 0.008101 -0.015403 -0.000002 0.000010 -0.000005 -0.038967 0.000000 -0.000000 -0.000002 -0.000002 -0.000001 -0.022488 0.000000 -0.000000 0.712572 -0.008155 -1.310709 -0.003995 -0.010985 0.018096 -86.199781 49.487763 89.646875 -0.052819 -0.000008 -0.000074 2.573035 -0.739904 -0.462992 -0.032489 0.000042 -0.000035 -4.590278 -0.705057 0.717067 0.087143 -0.045243 0.001548 -4.371345 -10.238566 -0.778472 -0.000000 -0.394432 -0.000001 0.939358 22.943487 -1.781543 -0.000000 -0.466446 0.003058 2.077912 -8.345996 14.663404 -0.000000 -0.079218 0.140851 -0.000002 0.248288 -0.000001 -0.087143 -0.045243 0.001548 -12.565868 -16.022861 -3.520667 -0.000000 -0.394432 -0.000001 10.192658 28.353807 -20.045827 0.000000 -0.466446 0.003058 5.519627 -10.619260 28.522990 -0.000000 -0.079218 0.140851 0.000000 0.248285 0.000001 
-0.120208 1.008825 -0.237035 -1.099531 11.609629 13.845878 -0.000000 0.059888 0.006666 -0.763174 7.070018 3.797651 -0.000000 0.125681 -0.015911 -0.126059 0.135725 -0.299556 -0.000000 0.122768 -0.001652 -0.000002 -12.396968 0.000014 -0.000000 0.155865 0.008735 -0.262251 17.128250 0.293281 -0.000000 0.095969 -0.000410 2.021894 5.398694 1.228716 0.015267 0.059218 0.021494 -1.701528 3.586934 21.747777 -0.015267 0.059218 0.021494 1.701522 3.586943 -21.747771 0.025383 0.124268 0.007699 15.425941 -2.696636 16.777018 0.136062 -0.000000 0.000000 -63.523321 25.088921 -2.712075 0.225446 0.000000 0.000000 -13.385928 -34.958196 -37.108565 0.256325 0.000003 0.000015 1.942725 41.595029 -3.664901 0.074229 0.008101 0.022282 -0.012969 0.667615 1.112091 0.037712 0.000000 -0.000001 -1.679199 1.282851 0.674503 0.023218 0.000022 0.000021 -0.334984 1.286444 -0.710992 0.069261 0.008101 -0.033073 0.000000 -0.000043 0.000000 0.035643 -0.000000 0.000000 0.000004 0.000002 -0.000001 0.020542 -0.000000 0.000000 0.890206 -0.008560 -1.101152 0.075240 0.008101 0.002320 -0.000004 -0.000009 -0.000007 0.042007 -0.000000 0.000000 0.000004 0.000039 -0.000012 0.025915 0.000000 -0.000000 0.000005 0.000039 -0.000014 0.074383 0.008101 -0.015403 -0.000003 0.000013 0.000003 0.038967 -0.000000 0.000000 0.000005 0.000001 -0.000000 0.022488 0.000000 0.000000 -0.712577 -0.008159 1.310708 0.003995 -0.010985 0.018096 86.199760 49.487774 -89.646854 0.052819 -0.000008 -0.000074 -2.573034 -0.739912 0.462996 0.032489 0.000042 -0.000035 4.590278 -0.705065 -0.717065 -0.025383 0.124268 0.007699 7.250749 -2.677933 -16.867593 -0.136062 0.000000 0.000000 41.604137 22.696850 8.845704 -0.225446 -0.000000 0.000000 4.522283 -21.767900 16.183850 -0.256325 0.000003 0.000015 14.036864 47.613238 -6.821931 -0.074229 0.008101 0.022282 0.012969 0.667618 -1.112090 -0.037712 0.000000 -0.000001 1.679194 1.282852 -0.674503 -0.023218 0.000022 0.000021 0.334981 1.286445 0.710990 -0.069261 0.008101 -0.033073 -0.000007 -0.000041 0.000002 -0.035643 0.000000 -0.000000 -0.000007 0.000003 -0.000002 -0.020542 -0.000000 0.000000 -0.890205 -0.008561 1.101152 -0.075240 0.008101 0.002320 0.000001 -0.000004 0.000008 -0.042007 -0.000000 -0.000000 -0.000003 0.000040 0.000012 -0.025915 -0.000000 -0.000000 -0.000004 0.000040 0.000013 -0.074383 0.008101 -0.015403 -0.000003 0.000018 -0.000003 -0.038967 0.000000 0.000000 -0.000005 0.000002 -0.000002 -0.022488 0.000000 -0.000000 0.712574 -0.008160 -1.310710 -0.003995 -0.010985 0.018096 -86.199774 49.487760 89.646882 -0.052819 -0.000008 -0.000074 2.573038 -0.739904 -0.462996 -0.032489 0.000042 -0.000035 -4.590278 -0.705061 0.717063 0.087143 -0.045243 0.001548 -3.535452 -11.027485 -0.677105 -0.000000 -0.394432 -0.000001 0.910255 23.623784 -1.828795 -0.000000 -0.466446 0.003058 2.611179 -10.308129 14.810101 -0.000000 -0.079218 0.140851 0.000000 0.248287 0.000000 -0.087143 -0.045243 0.001548 -11.562747 -16.918640 -3.407290 -0.000000 -0.394432 -0.000001 10.284336 28.972191 -19.964380 0.000000 -0.466446 0.003058 5.567514 -11.402875 27.007461 -0.000000 -0.079218 0.140851 -0.000000 0.248288 0.000001 
